<?xml version="1.0" standalone="no"?>
<!DOCTYPE svg PUBLIC "-//W3C//DTD SVG 20010904//EN"
 "http://www.w3.org/TR/2001/REC-SVG-20010904/DTD/svg10.dtd">
<svg version="1.0" xmlns="http://www.w3.org/2000/svg"
 width="1920.000000pt" height="1920.000000pt" viewBox="0 0 1920.000000 1920.000000"
 preserveAspectRatio="xMidYMid meet">
<metadata>
Created by potrace 1.11, written by Peter Selinger 2001-2013
</metadata>
<g transform="translate(0.000000,1920.000000) scale(0.100000,-0.100000)"
fill="#000000" stroke="none">
<path d="M5730 17584 c-79 -28 -137 -80 -177 -159 -35 -68 -38 -187 -6 -257
30 -65 86 -123 152 -156 48 -23 68 -27 145 -27 l89 0 39 -60 c21 -33 41 -67
45 -75 3 -8 9 -17 13 -20 3 -3 28 -41 55 -85 27 -44 76 -123 110 -175 82 -127
178 -277 190 -298 6 -9 39 -63 75 -119 180 -283 171 -266 149 -281 -11 -7 -19
-25 -19 -40 0 -23 92 -179 245 -412 13 -19 83 -129 156 -245 72 -115 156 -247
186 -293 30 -46 59 -94 65 -108 6 -13 14 -24 18 -24 4 0 11 -8 14 -17 7 -21
14 -32 79 -132 43 -66 47 -77 37 -97 -21 -38 -17 -46 192 -372 29 -45 58 -90
63 -100 12 -21 60 -98 130 -207 157 -244 435 -684 435 -689 0 -2 -46 -35 -102
-72 -140 -93 -279 -206 -405 -330 l-106 -103 -71 -6 c-39 -3 -96 -8 -126 -10
-30 -3 -86 -7 -125 -10 -38 -3 -88 -7 -110 -9 -22 -2 -78 -7 -125 -11 -47 -3
-92 -8 -100 -10 -8 -2 -49 -7 -90 -11 -107 -9 -122 -11 -255 -29 -16 -2 -52
-7 -80 -10 -27 -4 -61 -8 -75 -10 -14 -2 -76 -11 -138 -20 -62 -9 -123 -18
-135 -20 -11 -3 -39 -7 -62 -11 -162 -23 -470 -88 -705 -149 -45 -11 -227 -70
-300 -97 -330 -120 -662 -294 -920 -485 -184 -135 -423 -359 -547 -513 -246
-305 -418 -622 -526 -970 -34 -109 -80 -286 -92 -358 -3 -18 -12 -65 -21 -105
-12 -60 -33 -180 -49 -287 -9 -61 -17 -117 -20 -140 -2 -14 -6 -43 -9 -65 -6
-45 -12 -94 -21 -175 -4 -30 -8 -66 -10 -80 -2 -14 -6 -61 -10 -105 -3 -44 -8
-96 -10 -115 -13 -121 -28 -347 -40 -595 -4 -77 -8 -169 -10 -205 -5 -84 -5
-802 0 -900 12 -275 22 -461 30 -558 4 -40 8 -96 10 -125 6 -92 21 -251 40
-407 2 -25 7 -67 10 -95 3 -27 8 -65 10 -84 37 -251 45 -310 49 -331 3 -14 12
-63 21 -110 8 -47 22 -119 30 -160 8 -41 17 -84 19 -95 9 -48 38 -153 51 -187
8 -21 13 -38 10 -38 -7 0 72 -215 122 -330 45 -104 115 -241 160 -312 12 -21
23 -42 23 -47 0 -5 3 -11 8 -13 4 -1 37 -48 74 -103 37 -55 75 -109 85 -120
10 -11 37 -44 60 -74 97 -121 245 -271 409 -411 155 -133 419 -303 634 -409
58 -29 113 -56 122 -61 9 -5 71 -32 138 -60 175 -73 398 -145 613 -199 l188
-47 -187 -280 c-103 -153 -225 -334 -271 -402 -46 -67 -90 -137 -97 -155 -33
-83 -11 -183 55 -247 82 -79 182 -79 292 1 35 26 137 112 187 159 18 17 154
136 236 207 12 10 52 45 90 79 137 121 179 159 203 179 14 11 32 27 41 35 9 8
49 44 90 80 41 36 77 67 80 70 3 3 32 27 65 55 33 27 65 56 71 65 10 13 32 12
175 -4 90 -10 182 -19 204 -21 22 -2 63 -6 90 -9 28 -3 109 -10 180 -16 72 -6
153 -12 180 -15 28 -2 97 -7 155 -10 58 -3 123 -8 145 -10 22 -2 112 -7 200
-10 88 -4 178 -8 200 -10 274 -26 2591 -26 2965 0 30 2 127 6 215 10 88 3 174
8 190 10 17 2 83 7 147 10 64 3 125 7 135 9 10 2 68 7 128 11 61 4 119 9 130
11 11 1 58 5 105 9 47 3 96 7 110 9 14 3 57 7 95 11 39 4 77 8 85 10 8 1 46 6
85 10 38 4 73 9 76 11 4 2 69 -51 145 -117 192 -167 583 -510 597 -523 7 -6
46 -40 87 -76 41 -36 91 -79 110 -96 171 -153 217 -183 295 -191 146 -17 265
150 211 297 -6 19 -46 85 -87 145 -74 108 -181 268 -372 555 l-97 145 28 8
c15 4 41 9 57 12 140 25 571 159 690 215 11 5 49 21 85 36 115 47 304 144 445
229 424 256 787 613 1032 1016 177 290 321 670 379 999 2 14 9 45 14 70 5 25
12 59 15 75 3 17 7 39 9 50 2 11 7 40 11 65 4 25 9 54 11 65 6 29 42 290 49
355 3 30 8 66 10 80 2 14 7 54 10 90 4 36 8 77 10 91 2 14 6 66 10 115 3 49 8
100 10 114 2 14 7 75 10 135 3 61 8 121 10 135 4 23 12 212 21 460 13 392 0
994 -31 1415 -11 143 -16 211 -20 250 -6 62 -14 144 -21 210 -3 33 -7 71 -9
85 -2 14 -6 50 -10 80 -7 61 -14 122 -20 160 -2 14 -9 61 -15 105 -6 44 -18
116 -25 160 -8 44 -16 91 -19 105 -4 26 -32 169 -40 206 -72 341 -209 692
-373 954 -41 65 -190 278 -207 296 -6 6 -31 35 -56 65 -138 168 -416 415 -625
556 -243 164 -443 265 -820 413 -145 57 -478 148 -675 185 -14 3 -38 8 -55 11
-16 4 -39 8 -50 10 -29 4 -71 12 -145 25 -36 6 -74 13 -85 14 -11 2 -47 8 -80
14 -33 5 -78 13 -100 15 -22 3 -103 15 -180 25 -77 11 -165 22 -195 26 -30 3
-71 8 -90 10 -19 3 -62 7 -95 10 -33 3 -71 8 -85 10 -14 2 -59 7 -100 10 -41
3 -93 8 -115 10 -39 4 -59 6 -245 21 -93 7 -162 11 -228 13 -40 1 -48 7 -133
90 -101 101 -236 217 -322 276 -31 22 -57 43 -57 46 0 3 39 32 88 65 48 32 92
64 99 69 6 6 91 64 188 130 268 182 489 333 500 342 6 5 36 25 67 46 76 50 90
66 84 91 -5 23 -21 11 595 432 74 50 177 121 229 157 52 36 176 121 275 188
99 68 182 126 183 131 2 4 8 8 13 8 9 0 152 97 182 125 13 12 17 24 12 44 -5
26 0 32 80 87 48 32 92 64 99 70 6 6 16 13 22 15 6 2 77 50 160 107 82 57 242
167 356 245 114 78 215 148 225 154 10 7 50 34 88 61 91 62 284 194 360 247
33 23 110 75 170 117 l110 76 54 -31 c97 -55 219 -39 303 40 69 66 92 192 51
283 -89 199 -377 199 -463 -1 -17 -41 -21 -66 -18 -122 l3 -71 -135 -92 c-74
-51 -184 -127 -245 -168 -60 -41 -181 -124 -267 -183 -87 -59 -190 -130 -230
-158 -173 -118 -688 -472 -745 -512 -35 -24 -63 -39 -63 -33 0 5 -8 14 -18 19
-24 13 -55 -4 -183 -93 -52 -36 -101 -71 -109 -76 -8 -6 -58 -40 -110 -76 -52
-35 -144 -99 -205 -140 -60 -41 -159 -109 -218 -150 -107 -74 -227 -155 -421
-288 -56 -37 -142 -97 -193 -132 -52 -36 -94 -60 -98 -54 -14 23 -56 5 -165
-70 -63 -43 -158 -108 -210 -144 -52 -35 -142 -97 -200 -137 -58 -39 -161
-110 -230 -157 -168 -115 -184 -126 -190 -133 -3 -3 -19 -13 -37 -22 -17 -9
-37 -22 -45 -29 -7 -7 -39 -30 -70 -51 l-58 -37 -52 26 c-134 65 -375 148
-523 180 -126 27 -222 42 -390 60 -72 7 -350 7 -397 0 -18 -3 -64 -8 -101 -11
-37 -4 -78 -8 -90 -11 -12 -2 -39 -6 -62 -10 -112 -16 -389 -91 -483 -129 -40
-17 -62 -19 -62 -5 0 5 -28 54 -63 107 -35 54 -83 130 -107 168 -24 39 -62 99
-85 135 -23 36 -102 160 -175 275 -73 116 -147 233 -165 260 -17 28 -78 124
-135 214 -57 90 -110 169 -117 177 -8 8 -27 14 -42 14 -32 0 -15 -24 -356 515
-101 160 -208 328 -238 375 -29 47 -76 120 -103 163 -118 187 -150 232 -174
244 -21 10 -28 10 -39 -2 -13 -12 -19 -8 -45 35 -17 27 -55 87 -84 132 -29 46
-58 92 -65 103 -21 33 -108 171 -243 382 -71 112 -133 210 -139 220 -5 9 -40
64 -77 121 l-66 104 20 22 c41 44 70 128 69 201 -1 113 -78 233 -180 278 -62
27 -171 33 -231 11z"/>
</g>
</svg>
